<svg width="27" height="20" viewBox="0 0 27 20" fill="none" xmlns="http://www.w3.org/2000/svg">
<path d="M18.1558 20H2.20153C1.91242 20 1.62614 19.9441 1.35904 19.8354C1.09194 19.7267 0.849244 19.5673 0.644813 19.3665C0.440382 19.1657 0.278219 18.9272 0.167581 18.6648C0.0569443 18.4024 0 18.1212 0 17.8371L0 2.16288C0 1.58925 0.231946 1.03911 0.644813 0.633494C1.05768 0.227875 1.61765 0 2.20153 0L18.1558 0C18.7397 0 19.2997 0.227875 19.7125 0.633494C20.1254 1.03911 20.3574 1.58925 20.3574 2.16288V17.8371C20.3574 18.1212 20.3004 18.4024 20.1898 18.6648C20.0791 18.9272 19.917 19.1657 19.7125 19.3665C19.5081 19.5673 19.2654 19.7267 18.9983 19.8354C18.7312 19.9441 18.4449 20 18.1558 20V20ZM2.20153 1.06809C1.90621 1.0688 1.62318 1.18437 1.41436 1.38953C1.20553 1.59469 1.08789 1.87274 1.08718 2.16288V17.8371C1.08789 18.1273 1.20553 18.4053 1.41436 18.6105C1.62318 18.8156 1.90621 18.9312 2.20153 18.9319H18.1558C18.4512 18.9312 18.7342 18.8156 18.943 18.6105C19.1518 18.4053 19.2695 18.1273 19.2702 17.8371V2.16288C19.2695 1.87274 19.1518 1.59469 18.943 1.38953C18.7342 1.18437 18.4512 1.0688 18.1558 1.06809H2.20153Z" fill="#4F4F4F"/>
<path d="M25.2089 15.1802C24.9248 15.1782 24.6452 15.1095 24.3935 14.98L19.3354 12.4086L19.841 11.4606L24.8882 14.032C24.9958 14.0873 25.1161 14.1143 25.2375 14.1104C25.3588 14.1065 25.4771 14.0718 25.5807 14.0097C25.6844 13.9476 25.77 13.8603 25.8291 13.7561C25.8883 13.6519 25.919 13.5345 25.9183 13.4152V6.58212C25.9185 6.46306 25.8875 6.34597 25.8281 6.24217C25.7688 6.13837 25.6832 6.05137 25.5796 5.98961C25.476 5.92784 25.3579 5.8934 25.2368 5.8896C25.1157 5.88581 24.9956 5.9128 24.8882 5.96796L19.841 8.54473L19.3409 7.5968L24.3827 5.02003C24.6558 4.88134 24.9607 4.81397 25.268 4.82438C25.5753 4.83479 25.8747 4.92263 26.1375 5.07947C26.4003 5.23631 26.6177 5.45689 26.7687 5.72003C26.9198 5.98316 26.9994 6.28002 27 6.58212V13.4152C26.9993 13.8822 26.8106 14.3299 26.475 14.6606C26.1394 14.9913 25.6842 15.1781 25.2089 15.1802V15.1802Z" fill="#4F4F4F"/>
<path d="M10.1786 15.1615C9.13948 15.1615 8.12372 14.8588 7.25974 14.2917C6.39576 13.7245 5.72237 12.9184 5.32473 11.9752C4.92708 11.0321 4.82304 9.99427 5.02576 8.99302C5.22847 7.99178 5.72885 7.07208 6.4636 6.35022C7.19836 5.62837 8.13449 5.13678 9.15362 4.93762C10.1728 4.73846 11.2291 4.84068 12.1891 5.23134C13.1491 5.62201 13.9696 6.28358 14.5469 7.13239C15.1242 7.9812 15.4324 8.97913 15.4324 9.99999C15.4309 11.3685 14.8769 12.6805 13.892 13.6482C12.907 14.6159 11.5715 15.1601 10.1786 15.1615ZM10.1786 5.90653C9.35451 5.90653 8.54894 6.14661 7.86374 6.59641C7.17855 7.0462 6.64451 7.68551 6.32915 8.43349C6.01379 9.18147 5.93127 10.0045 6.09204 10.7986C6.25281 11.5926 6.64964 12.322 7.23235 12.8945C7.81506 13.467 8.55748 13.8568 9.36572 14.0148C10.174 14.1727 11.0117 14.0917 11.7731 13.7819C12.5344 13.472 13.1852 12.9474 13.643 12.2742C14.1008 11.601 14.3452 10.8096 14.3452 9.99999C14.3437 8.91477 13.9043 7.87441 13.1232 7.10704C12.3421 6.33967 11.2832 5.90795 10.1786 5.90653V5.90653Z" fill="#4F4F4F"/>
</svg>
