<svg width="22" height="22" viewBox="0 0 22 22" fill="none" xmlns="http://www.w3.org/2000/svg">
<path fill-rule="evenodd" clip-rule="evenodd" d="M6.90866 5.75056C7.50668 5.37394 7.88778 5.64264 8.1047 6.23437L8.64849 7.63144C8.64849 7.63144 9.0296 8.38394 8.05047 9.13644C7.88778 9.24362 7.88778 9.24362 7.94201 9.5086C8.15968 10.1539 9.0296 12.0884 11.8028 13.5934C12.0747 13.7542 12.1297 13.7542 12.4016 13.5391L13.108 12.8409C13.5976 12.4107 13.8695 12.2499 14.3048 12.5722C14.6309 12.7873 14.9571 13.056 15.284 13.2704C15.6108 13.5391 16.1546 13.8621 15.6108 14.5067L15.1213 15.0976C14.414 15.9581 13.816 16.0117 12.8911 15.7966C9.35572 14.8863 6.74522 12.4144 5.60341 8.92134C5.22306 7.58157 5.76685 6.44873 6.90866 5.75056ZM10.7152 0C13.5565 4.18406e-08 16.2814 1.11542 18.2905 3.10089C20.2996 5.08636 21.4283 7.77923 21.4283 10.5871C21.4283 13.395 20.2996 16.0879 18.2905 18.0733C16.2814 20.0588 13.5565 21.1742 10.7152 21.1742C9.08383 21.1742 7.56091 20.8519 6.20143 20.2066L0.491616 21.1742L1.25308 15.5852L1.19809 15.4817C0.353268 13.8659 -0.0570955 12.0626 0.00639143 10.2449C0.0698784 8.42718 0.605084 6.65612 1.56064 5.1017C2.51619 3.54728 3.86001 2.26167 5.46311 1.36829C7.06621 0.474907 8.87477 0.00373498 10.7152 0V0ZM3.97203 18.8095L5.49495 18.5408L6.4191 18.3801C7.73481 19.0921 9.2121 19.462 10.7122 19.4549C12.4871 19.4556 14.2224 18.9361 15.6985 17.9622C17.1747 16.9882 18.3254 15.6035 19.0051 13.9832C19.6849 12.3629 19.8631 10.5798 19.5173 8.85938C19.1715 7.13896 18.3172 5.55853 17.0624 4.31798C15.8076 3.07743 14.2087 2.23249 12.4679 1.89003C10.7272 1.54756 8.92276 1.72296 7.28288 2.39402C5.64301 3.06509 4.24134 4.20169 3.25518 5.66007C2.26901 7.11844 1.74264 8.83308 1.74264 10.5871C1.74264 12.3608 2.28643 13.973 3.15635 15.3701L3.04714 16.1762L2.83022 17.7891L2.66678 19.0246L3.97203 18.8095Z" fill="#231F20"/>
</svg>
