<svg width="18" height="18" viewBox="0 0 18 18" fill="none" xmlns="http://www.w3.org/2000/svg">
<path d="M9 17.25C4.43617 17.25 0.75 13.5638 0.75 9C0.75 4.43617 4.43617 0.75 9 0.75C13.5638 0.75 17.25 4.43617 17.25 9C17.25 13.5638 13.5638 17.25 9 17.25ZM9 2.11915C5.20851 2.11915 2.11915 5.20851 2.11915 9C2.11915 12.7915 5.20851 15.8809 9 15.8809C12.7915 15.8809 15.8808 12.7915 15.8808 9C15.8808 5.20851 12.7915 2.11915 9 2.11915Z" fill="#828796"/>
<path d="M11.5129 5.45366C11.7913 5.17527 12.2349 5.18329 12.5038 5.47156C12.7726 5.75984 12.7649 6.21921 12.4865 6.4976L6.43753 12.5463C6.15914 12.8247 5.71552 12.8167 5.44667 12.5284C5.17783 12.2402 5.18557 11.7808 5.46397 11.5024L11.5129 5.45366Z" fill="#828796"/>
<path d="M6.48709 5.45366C6.2087 5.17527 5.76507 5.18329 5.49623 5.47156C5.22739 5.75984 5.23513 6.21921 5.51353 6.4976L11.5625 12.5463C11.8409 12.8247 12.2845 12.8167 12.5533 12.5284C12.8222 12.2402 12.8144 11.7808 12.536 11.5024L6.48709 5.45366Z" fill="#828796"/>
</svg>
