<svg width="4" height="17" viewBox="0 0 4 17" fill="none" xmlns="http://www.w3.org/2000/svg">
<path d="M2.40687 1.84417C2.75572 1.84417 3.03851 2.12697 3.03851 2.47582C3.03851 2.82466 2.75572 3.10746 2.40687 3.10746C2.05803 3.10746 1.77523 2.82466 1.77523 2.47582C1.77523 2.12697 2.05803 1.84417 2.40687 1.84417ZM2.40687 8.16058C2.75572 8.16058 3.03851 8.44338 3.03851 8.79222C3.03851 9.14107 2.75572 9.42386 2.40687 9.42386C2.05803 9.42386 1.77523 9.14107 1.77523 8.79222C1.77523 8.44338 2.05803 8.16058 2.40687 8.16058ZM2.40687 14.477C2.75572 14.477 3.03851 14.7598 3.03851 15.1086C3.03851 15.4575 2.75572 15.7403 2.40687 15.7403C2.05803 15.7403 1.77523 15.4575 1.77523 15.1086C1.77523 14.7598 2.05803 14.477 2.40687 14.477Z" fill="#4F4F4F" stroke="#4F4F4F" stroke-width="1.89492"/>
</svg>
