<svg width="24" height="24" viewBox="0 0 24 24" fill="none" xmlns="http://www.w3.org/2000/svg">
<path d="M21.9 19.8H2.1C1.49281 19.8 1 20.2928 1 20.9C1 21.5072 1.49281 22 2.1 22H21.9C22.5072 22 23 21.5072 23 20.9C23 20.2928 22.5072 19.8 21.9 19.8ZM2.1 4.4H21.9C22.5072 4.4 23 3.90723 23 3.3C23 2.69277 22.5072 2.2 21.9 2.2H2.1C1.49281 2.20003 1 2.6928 1 3.30003C1 3.90723 1.49281 4.4 2.1 4.4ZM21.9 11H2.1C1.49281 11 1 11.4928 1 12.1C1 12.7073 1.49281 13.2 2.1 13.2H21.9C22.5072 13.2 23 12.7072 23 12.1C23 11.4928 22.5072 11 21.9 11Z" fill="#343A3D"/>
</svg>
